<svg width="803" height="82" viewBox="0 0 803 82" fill="none" xmlns="http://www.w3.org/2000/svg">
<g clip-path="url(#clip0_850_2)">
<path d="M12.5156 1.19995H49.3615C69.2863 1.19995 75.7944 10.6 75.7944 21C75.7944 31.5 68.5854 37.8999 60.1749 39.5999C67.6843 41.0999 73.892 46.2 73.892 55.9C73.892 70.4 61.5767 80.4 42.2526 80.4H0L12.5156 1.19995ZM37.2464 61.3C42.2526 61.3 45.4566 58.3 45.4566 54C45.4566 50 43.1537 48.0999 38.1475 48.0999H33.742L31.6394 61.3H37.2464ZM42.2526 31.0999C47.0586 31.0999 49.2613 28.8999 49.2613 25.0999C49.2613 21.3999 47.0586 20.0999 43.0536 20.0999H38.1475L36.3453 31.0999H42.2526Z" fill="#ffff5e"/>
<path d="M84.4047 1.19995H113.942L104.93 57.7H131.664L128.159 80.3H71.8892L84.4047 1.19995Z" fill="#ffff5e"/>
<path d="M180.725 69.8H158.397L154.092 80.3H125.957L162.802 1.19995H200.75L212.464 80.3H181.626L180.725 69.8ZM166.407 50.0999H178.922L176.72 24.9L166.407 50.0999Z" fill="#ffff5e"/>
<path d="M209.761 46.9C209.761 19.2 226.281 0 255.217 0C278.246 0 292.063 10.7 292.764 32.7H262.827C262.627 26.5 260.124 22.9 254.416 22.9C244.804 22.9 240.8 33.7 240.599 45.6C240.499 52.2 242.702 58.7 250.411 58.7C255.718 58.7 259.923 55.9 261.525 48.9H290.862C288.058 71.5 270.737 82 250.111 82C225.981 81.8 209.761 70.7 209.761 46.9Z" fill="#ffff5e"/>
<path d="M300.174 1.19995H329.71L325.405 28.5999L348.934 1.19995H380.173L346.932 38.9L367.357 80.3H335.718L322.101 50L317.295 80.3H287.658L300.174 1.19995Z" fill="#ffff5e"/>
<path d="M414.015 1.19995H471.287L467.582 23.8H439.847L438.145 34.9H460.673L457.269 56.3H434.841L431.036 80.4H401.5L414.015 1.19995Z" fill="#ffff5e"/>
<path d="M473.389 1.19995H506.931C529.058 1.19995 538.57 10.7 538.57 24.9C538.57 37.5 532.062 45.7 522.35 49L534.966 80.3H505.529L495.717 55.2H494.015L490.11 80.3H460.874L473.389 1.19995ZM501.624 36.7C506.631 36.7 509.935 34.5999 509.935 29.0999C509.935 25.1999 507.632 23.0999 502.726 23.0999H499.221L497.119 36.7H501.624Z" fill="#ffff5e"/>
<path d="M548.282 1.19995H578.119L565.604 80.3H535.767L548.282 1.19995Z" fill="#ffff5e"/>
<path d="M584.628 1.19995H613.564C640.798 1.19995 655.516 13.1 655.516 34.8C655.516 65.7 635.791 80.3 608.958 80.3H572.112L584.628 1.19995ZM609.358 58.0999C619.571 58.0999 624.978 50.5 624.978 36.2C624.978 27.3 620.773 23.5 613.063 23.5H610.76L605.253 58.0999H609.358V58.0999Z" fill="#ffff5e"/>
<path d="M696.868 69.8H674.54L670.234 80.3H642.099L678.945 1.19995H716.893L728.607 80.3H697.769L696.868 69.8ZM682.55 50.0999H695.065L692.863 24.9L682.55 50.0999Z" fill="#ffff5e"/>
<path d="M742.124 46.7L724.001 1.19995H754.539L761.047 22.2L774.163 1.19995H803.5L771.66 48.0999L766.554 80.3H736.817L742.124 46.7Z" fill="#ffff5e"/>
</g>
<defs>
<clipPath id="clip0_850_2">
<rect width="803" height="82" fill="white"/>
</clipPath>
</defs>
</svg>
